# xmcd
#
# Track frame offsets:
#	150
#	15887
#	32214
#	58035
#	88297
#	108901
#	131186
#	148009
#	174094
#	204203
#
# Disc length: 3119 seconds
#
# Revision: 1
# Processed by: cddbd v1.5.2PL0 Copyright (c) Steve Scherf et al.
# Submitted via: audiograbber 1.83.01
#
DISCID=800c2d0a
DTITLE=Tommy Lee Cook - Downtown Buckingham
DYEAR=1900
DGENRE=Blues
TTITLE0=Hey Little Girl
TTITLE1=Doentown Buckingham
TTITLE2=Stand
TTITLE3=Slim Man
TTITLE4=Last Unkind Words
TTITLE5=Run For Cover
TTITLE6=Late Night Dive
TTITLE7=Love's Gotta Hold of You
TTITLE8=Porta'rican Woman
TTITLE9=Southern Soul
EXTD=
EXTT0=
EXTT1=
EXTT2=
EXTT3=
EXTT4=
EXTT5=
EXTT6=
EXTT7=
EXTT8=
EXTT9=
PLAYORDER=
